<?xml version="1.0" encoding="utf-8"?>
<!-- Generator: Adobe Illustrator 16.0.0, SVG Export Plug-In . SVG Version: 6.00 Build 0)  -->
<!DOCTYPE svg PUBLIC "-//W3C//DTD SVG 1.1//EN" "http://www.w3.org/Graphics/SVG/1.1/DTD/svg11.dtd">
<svg version="1.1"
	 id="svg2" inkscape:version="0.48.4 r9939" sodipodi:docname="instagram-logo-black-png.svg" xmlns:cc="http://creativecommons.org/ns#" xmlns:sodipodi="http://sodipodi.sourceforge.net/DTD/sodipodi-0.dtd" xmlns:rdf="http://www.w3.org/1999/02/22-rdf-syntax-ns#" xmlns:svg="http://www.w3.org/2000/svg" xmlns:dc="http://purl.org/dc/elements/1.1/" xmlns:inkscape="http://www.inkscape.org/namespaces/inkscape"
	 xmlns="http://www.w3.org/2000/svg" xmlns:xlink="http://www.w3.org/1999/xlink" x="0px" y="0px" width="97.162px"
	 height="97.299px" viewBox="1.59 1.385 97.162 97.299" enable-background="new 1.59 1.385 97.162 97.299" xml:space="preserve">
<title  id="title2997">Instagram icon</title>
<sodipodi:namedview  inkscape:current-layer="svg2" inkscape:window-maximized="1" inkscape:window-y="-4" inkscape:window-x="-4" inkscape:window-height="844" inkscape:window-width="1600" inkscape:pageshadow="2" inkscape:showpageshadow="false" inkscape:pageopacity="0" inkscape:cy="46.746849" inkscape:cx="75.986979" inkscape:zoom="1" showgrid="false" guidetolerance="10" gridtolerance="10" objecttolerance="10" borderopacity="1" bordercolor="#666666" id="namedview16" pagecolor="#ffffff">
	</sodipodi:namedview>
<g id="g6" transform="matrix(0.01880253,0,0,-0.01877464,-8.09169,88.053468)">
	<path id="path10" inkscape:connector-curvature="0" d="M1502.363,3981.164l-3.74-634.986l-59.986-3.746
		c-33.76-2.496-68.764,2.496-78.762,11.262c-14.984,12.482-17.504,112.48-17.504,624.975c0,693.736,12.518,627.496-112.494,588.746
		l-68.738-22.496l-6.258-598.734l-6.258-600.006l-66.246-3.746c-38.744-2.496-74.996,2.496-84.994,11.262
		c-14.982,12.482-17.502,102.494-17.502,543.729c0,487.5-1.246,529.996-21.242,529.996c-11.244,0-74.996-55.006-142.488-122.494
		c-107.508-108.76-128.75-138.771-183.75-253.75c-104.99-215-106.264-219.992-111.248-713.734l-6.26-434.994h838.725
		c461.248,0,838.748,4.994,838.748,9.986c0,16.256,148.746,133.754,238.727,187.512c108.754,66.24,235.012,118.748,368.748,153.727
		c163.756,42.521,424.998,41.273,593.74-3.744c200.006-53.73,396.223-155.002,544.969-281.24l77.49-66.24h832.49h833.736
		l-4.986,441.234c-4.984,411.25-7.479,446.254-33.758,533.742c-52.508,177.498-116.234,279.992-268.719,432.496
		c-152.486,151.23-253.764,215-432.529,269.979l-93.744,28.764l-1496.188,3.746l-1497.486,3.744l-2.492-634.986l-3.74-634.986
		l-60.012-3.746c-33.734-2.496-68.738,2.496-78.736,11.262c-15.01,12.482-17.502,113.729-17.502,637.482v623.727h-93.746h-93.746
		L1502.363,3981.164z M5092.268,4133.668c21.293-11.26,48.768-41.246,62.531-68.762c22.488-44.992,24.98-73.73,24.98-346.23
		c0-430,13.764-416.242-411.232-416.242c-322.475,0-361.219,8.738-402.457,90.01c-23.787,46.24-25.033,68.736-21.293,361.236
		l3.738,313.75l46.275,42.494l47.523,42.496h306.217C4999.82,4152.42,5062.248,4148.674,5092.268,4133.668z"/>
	<path id="path12" inkscape:connector-curvature="0" d="M2948.588,3018.697c-439.98-61.246-797.486-413.746-868.717-857.502
		c-21.268-128.735-9.998-337.493,24.98-458.738c48.77-171.229,115.014-278.743,262.514-424.954
		c146.227-147.512,241.219-208.784,389.965-256.272c584.988-185.014,1184.959,139.969,1336.197,724.971
		c33.76,129.982,36.252,374.994,6.285,493.742c-55.002,213.752-122.52,330.004-288.715,493.742
		c-161.264,161.244-299.986,233.752-516.25,276.248C3208.582,3026.188,3036.074,3031.18,2948.588,3018.697z M3223.592,2708.693
		c97.484-20,292.506-112.506,349.947-166.236c101.275-93.756,183.752-228.758,226.287-372.498
		c31.215-102.494,27.475-272.501-6.283-380.015c-94.941-301.265-382.461-516.187-688.705-516.187
		c-112.494,0-198.762,22.47-324.992,82.494c-243.738,114.951-403.756,371.224-403.756,646.196
		c-1.246,336.243,242.518,632.489,580.002,704.997C3061.082,2731.189,3117.328,2731.189,3223.592,2708.693z"/>
	<path id="path14" inkscape:connector-curvature="0" d="M519.904,1518.744l3.74-1259.987l28.746-93.729
		c55.002-178.772,118.754-280.044,269.992-432.549c155.006-153.753,258.748-217.471,440.008-269.952l98.73-28.764h1731.227h1731.199
		l98.732,28.764c198.76,57.476,337.535,143.714,486.281,302.461c103.717,110.01,188.736,257.521,236.207,412.523l28.773,93.729
		l3.738,1253.745l3.74,1252.444h-770.012c-669.98,0-768.711-2.496-768.711-18.725c0-10.012,19.994-50.012,45.027-87.514
		c236.209-371.25,259.994-847.489,62.48-1242.483c-202.5-402.484-574.99-661.254-1028.707-713.736
		c-365.01-42.495-787.488,115.003-1050,392.498c-104.99,110.009-163.73,197.497-241.246,361.236
		c-91.227,188.759-117.48,311.252-117.48,533.742c0,146.263,4.986,202.517,27.5,292.501
		c32.486,131.256,92.5,273.748,156.252,373.746c24.98,39.998,46.25,79.998,46.25,90.01c0,16.229-97.512,18.725-762.48,18.725
		H516.141L519.904,1518.744z"/>
</g>
</svg>
