<?xml version="1.0" encoding="utf-8"?>
<!-- Generator: Adobe Illustrator 16.0.0, SVG Export Plug-In . SVG Version: 6.00 Build 0)  -->
<!DOCTYPE svg PUBLIC "-//W3C//DTD SVG 1.1//EN" "http://www.w3.org/Graphics/SVG/1.1/DTD/svg11.dtd">
<svg version="1.1" id="Layer_1" xmlns="http://www.w3.org/2000/svg" xmlns:xlink="http://www.w3.org/1999/xlink" x="0px" y="0px"
	 width="179.182px" height="145.609px" viewBox="0 0 179.182 145.609" enable-background="new 0 0 179.182 145.609"
	 xml:space="preserve">
<g id="g16">
	<path id="path22" fill="#464646" d="M179.181,17.234c-6.591,2.924-13.677,4.899-21.109,5.791
		c7.588-4.551,13.414-11.755,16.158-20.336c-7.103,4.214-14.966,7.271-23.343,8.918C144.185,4.464,134.63,0,124.058,0
		C103.755,0,87.3,16.457,87.3,36.758c0,2.883,0.322,5.688,0.951,8.377C57.7,43.604,30.614,28.965,12.483,6.728
		c-3.164,5.427-4.978,11.739-4.978,18.478c0,12.755,6.487,24.004,16.354,30.6c-6.025-0.188-11.694-1.844-16.65-4.599
		c-0.006,0.155-0.006,0.309-0.006,0.461c0,17.813,12.672,32.667,29.486,36.046C33.608,88.554,30.362,89,27.01,89
		c-2.37,0-4.67-0.225-6.919-0.656c4.683,14.604,18.255,25.232,34.343,25.529c-12.591,9.861-28.438,15.734-45.661,15.734
		c-2.965,0-5.895-0.174-8.771-0.512c16.274,10.43,35.595,16.514,56.354,16.514c67.611,0,104.581-56.012,104.581-104.591
		c0-1.594-0.036-3.176-0.104-4.751c7.18-5.188,13.411-11.659,18.342-19.032"/>
</g>
</svg>
