<?xml version="1.0" encoding="utf-8"?>
<!-- Generator: Adobe Illustrator 16.0.0, SVG Export Plug-In . SVG Version: 6.00 Build 0)  -->
<!DOCTYPE svg PUBLIC "-//W3C//DTD SVG 1.1//EN" "http://www.w3.org/Graphics/SVG/1.1/DTD/svg11.dtd">
<svg version="1.1" id="Layer_1" xmlns="http://www.w3.org/2000/svg" xmlns:xlink="http://www.w3.org/1999/xlink" x="0px" y="0px"
	 width="192.305px" height="412px" viewBox="-11.485 0 192.305 412" enable-background="new -11.485 0 192.305 412"
	 xml:space="preserve">
<g id="_x23_020201ff">
	<path fill="#464646" d="M51.887,21.226C67.953,5.928,90.805,0.761,112.362,0.117c22.799-0.205,45.589-0.081,68.388-0.072
		c0.09,24.051,0.1,48.111-0.009,72.161c-14.734-0.026-29.479,0.036-44.213-0.026c-9.342-0.582-18.938,6.5-20.635,15.762
		c-0.225,16.093-0.08,32.195-0.072,48.289c21.611,0.089,43.221-0.027,64.83,0.054c-1.582,23.28-4.471,46.456-7.858,69.541
		c-19.088,0.179-38.187-0.019-57.273,0.099c-0.17,68.665,0.09,137.33-0.135,205.995c-28.352,0.116-56.721-0.054-85.071,0.08
		c-0.537-68.674,0.044-137.383-0.295-206.065c-13.832-0.145-27.672,0.099-41.503-0.117c0.053-23.084,0.018-46.168,0.025-69.245
		c13.822-0.169,27.654,0.036,41.478-0.098c0.42-22.442-0.421-44.91,0.438-67.333C31.842,51.383,38.61,33.492,51.887,21.226z"/>
</g>
</svg>
