<?xml version="1.0" encoding="utf-8"?>
<!-- Generator: Adobe Illustrator 16.0.0, SVG Export Plug-In . SVG Version: 6.00 Build 0)  -->
<!DOCTYPE svg PUBLIC "-//W3C//DTD SVG 1.1//EN" "http://www.w3.org/Graphics/SVG/1.1/DTD/svg11.dtd">
<svg version="1.1"
	 id="svg2" inkscape:version="0.48.4 r9939" sodipodi:docname="instagram-logo-black-png.svg" xmlns:cc="http://creativecommons.org/ns#" xmlns:sodipodi="http://sodipodi.sourceforge.net/DTD/sodipodi-0.dtd" xmlns:rdf="http://www.w3.org/1999/02/22-rdf-syntax-ns#" xmlns:svg="http://www.w3.org/2000/svg" xmlns:dc="http://purl.org/dc/elements/1.1/" xmlns:inkscape="http://www.inkscape.org/namespaces/inkscape"
	 xmlns="http://www.w3.org/2000/svg" xmlns:xlink="http://www.w3.org/1999/xlink" x="0px" y="0px" width="97.16px"
	 height="97.297px" viewBox="0.001 0 97.16 97.297" enable-background="new 0.001 0 97.16 97.297" xml:space="preserve">
<title  id="title2997">Instagram icon</title>
<sodipodi:namedview  inkscape:current-layer="svg2" inkscape:window-maximized="1" inkscape:window-y="-4" inkscape:window-x="-4" inkscape:window-height="844" inkscape:window-width="1600" inkscape:pageshadow="2" inkscape:showpageshadow="false" inkscape:pageopacity="0" inkscape:cy="46.746849" inkscape:cx="75.986979" inkscape:zoom="1" showgrid="false" guidetolerance="10" gridtolerance="10" objecttolerance="10" borderopacity="1" bordercolor="#666666" id="namedview16" pagecolor="#ffffff">
	</sodipodi:namedview>
<g id="g6" transform="matrix(0.01880253,0,0,-0.01877464,-8.09169,88.053468)">
	<path id="path10" inkscape:connector-curvature="0" fill="#464646" d="M1417.887,4054.92l-3.74-634.961l-59.986-3.771
		c-33.758-2.471-68.764,2.498-78.762,11.287c-14.982,12.484-17.502,112.455-17.502,624.949
		c0,693.736,12.516,627.496-112.494,588.746l-68.738-22.496l-6.258-598.734l-6.26-599.98l-66.244-3.744
		c-38.744-2.498-74.996,2.496-84.994,11.26c-14.984,12.484-17.504,102.469-17.504,543.703c0,487.5-1.246,529.996-21.24,529.996
		c-11.246,0-74.998-55.006-142.488-122.492c-107.51-108.762-128.752-138.773-183.752-253.752
		c-104.963-214.998-106.262-219.992-111.223-713.709l-6.283-434.992h838.723c461.223,0,838.723,4.992,838.723,9.986
		c0,16.254,148.746,133.754,238.727,187.51c108.754,66.24,234.986,118.748,368.723,153.729
		c163.756,42.521,425.023,41.271,593.713-3.746c200.059-53.73,396.225-155.002,544.971-281.24l77.488-66.238h832.49h833.686
		l-4.986,441.234c-4.984,411.223-7.479,446.227-33.758,533.715c-52.457,177.498-116.234,279.992-268.721,432.496
		c-152.484,151.23-253.762,215-432.527,269.979l-93.693,28.764l-1496.188,3.746l-1497.434,3.744l-2.492-634.986l-3.74-634.961
		l-60.012-3.744c-33.732-2.498-68.738,2.496-78.736,11.26c-15.01,12.484-17.502,113.729-17.502,637.457v623.727h-93.721h-93.744
		L1417.887,4054.92z M5007.662,4207.424c21.293-11.26,48.82-41.246,62.531-68.762c22.541-44.992,25.033-73.73,25.033-346.23
		c0-429.975,13.711-416.217-411.234-416.217c-322.473,0-361.217,8.738-402.455,90.01c-23.787,46.242-25.033,68.711-21.295,361.213
		l3.74,313.748l46.275,42.494l47.521,42.496h306.166C4915.215,4226.176,4977.643,4222.432,5007.662,4207.424z"/>
	<path id="path12" inkscape:connector-curvature="0" fill="#464646" d="M2864.059,3092.479
		c-439.953-61.246-797.459-413.744-868.689-857.477c-21.268-128.734-9.998-337.44,24.98-458.736
		c48.77-171.23,115.014-278.691,262.514-424.955c146.227-147.511,241.193-208.783,389.939-256.221
		c585.014-185.065,1184.932,139.918,1336.172,724.971c33.758,129.932,36.252,374.943,6.283,493.666
		c-55,213.75-122.518,330.002-288.715,493.742c-161.264,161.242-299.934,233.75-516.197,276.246
		C3124.027,3099.969,2951.547,3104.963,2864.059,3092.479z M3139.09,2782.477c97.432-20,292.506-112.508,349.947-166.238
		c101.225-93.754,183.699-228.756,226.236-372.498c31.213-102.467,27.475-272.423-6.285-379.987
		c-94.939-301.266-382.408-516.187-688.678-516.187c-112.494,0-198.762,22.47-324.992,82.494
		c-243.713,114.95-403.73,371.275-403.73,646.195c-1.246,336.219,242.492,632.465,579.977,704.971
		C2976.527,2804.973,3032.826,2804.973,3139.09,2782.477z"/>
	<path id="path14" inkscape:connector-curvature="0" fill="#464646" d="M435.43,1592.552l3.738-1259.986l28.748-93.729
		c55-178.72,118.752-280.043,269.992-432.548c155.004-153.754,258.748-217.419,440.006-269.953l98.73-28.712h1731.148h1731.148
		l98.783,28.712c198.709,57.527,337.484,143.767,486.23,302.514c103.77,109.957,188.736,257.469,236.207,412.471l28.773,93.729
		l3.738,1253.745l3.74,1252.419h-770.012c-669.928,0-768.66-2.498-768.66-18.727c0-10.012,19.996-50.01,45.029-87.512
		c236.207-371.25,259.994-847.413,62.479-1242.407c-202.5-402.484-574.988-661.306-1028.654-713.735
		c-365.035-42.548-787.514,114.95-1050,392.497c-104.99,109.958-163.73,197.445-241.246,361.186
		c-91.227,188.811-117.48,311.251-117.48,533.741c0,146.238,4.986,202.49,27.502,292.475
		c32.486,131.258,92.498,273.75,156.25,373.746c24.982,40,46.25,79.998,46.25,90.01c0,16.229-97.512,18.727-762.455,18.727H431.689
		L435.43,1592.552z"/>
</g>
</svg>
