<?xml version="1.0" encoding="utf-8"?>
<!-- Generator: Adobe Illustrator 16.0.2, SVG Export Plug-In . SVG Version: 6.00 Build 0)  -->
<!DOCTYPE svg PUBLIC "-//W3C//DTD SVG 1.1//EN" "http://www.w3.org/Graphics/SVG/1.1/DTD/svg11.dtd">
<svg version="1.1" id="Layer_2" xmlns="http://www.w3.org/2000/svg" xmlns:xlink="http://www.w3.org/1999/xlink" x="0px" y="0px"
	 width="100px" height="100px" viewBox="0 0 100 100" enable-background="new 0 0 100 100" xml:space="preserve">
<g>
	<path fill="#FFFFFF" d="M78.509,10.967H24.157c-6.631,0-12.004,5.4-12.004,12.062v53.942c0,6.662,5.373,12.063,12.004,12.063
		h54.352c6.628,0,12.004-5.4,12.004-12.063V23.028C90.513,16.367,85.137,10.967,78.509,10.967z M51.332,35.111
		c8.224,0,14.89,6.666,14.89,14.89c0,8.222-6.666,14.888-14.89,14.888c-8.223,0-14.889-6.666-14.889-14.888
		C36.443,41.777,43.109,35.111,51.332,35.111z M81.218,76.545c0,1.699-1.391,3.088-3.088,3.088h-54.1
		c-1.697,0-3.088-1.389-3.088-3.088V43.73h7.135c-0.646,2.113-0.996,4.351-0.996,6.667c0,12.921,10.812,23.396,24.147,23.396
		c13.334,0,24.146-10.475,24.146-23.396c0-2.318-0.35-4.554-0.994-6.667h6.838V76.545z M81.358,31.658
		c0,1.924-1.573,3.498-3.496,3.498h-8.781c-1.924,0-3.497-1.574-3.497-3.498v-8.371c0-1.925,1.573-3.498,3.497-3.498h8.781
		c1.923,0,3.496,1.573,3.496,3.498V31.658z"/>
</g>
</svg>
